<svg width="493" height="341" viewBox="0 0 493 341" fill="none" xmlns="http://www.w3.org/2000/svg">
<path d="M232.138 314.927C198.79 311.08 151.788 283.615 151.788 283.615L171.875 232.318L252.225 260.298L325.447 256.301L309.895 305.6C309.895 305.6 262.519 318.431 232.138 314.927Z" fill="black" stroke="black" stroke-width="3.61796"/>
<path d="M34.202 134.626C59.7426 95.4321 128.267 60.4561 128.267 60.4561L249.47 87.6597C249.47 87.6597 174.912 279.246 137.312 322.765C98.2265 368.004 16.3938 305.064 4.08205 246.57C-3.30527 211.472 9.48608 172.555 34.202 134.626Z" fill="black" stroke="black" stroke-width="3.61796"/>
<path d="M267.638 8.81702C208.839 0.352443 133.708 60.4496 133.708 60.4496C133.708 60.4496 177.969 66.2373 202.307 95.6761C236.547 137.091 178.551 240.886 178.551 240.886C178.551 240.886 171.292 259.449 276.876 264.754C327.753 267.31 438.552 230.94 438.552 230.94C438.552 230.94 513.554 125.917 472.207 84.4063C437.752 49.8153 347.486 84.4063 347.486 84.4063C347.486 84.4063 316.682 15.8775 267.638 8.81702Z" fill="#F5F5F5" stroke="black" stroke-width="14.9999"/>
<path d="M419.086 127.176C402.032 109.751 410.478 69.4978 410.478 69.4978C410.478 69.4978 455.253 65.5766 473.793 83.9706C495.885 105.889 479.218 149.095 479.218 149.095C479.218 149.095 437.27 145.757 419.086 127.176Z" fill="black"/>
<ellipse cx="281.921" cy="105.458" rx="33.4989" ry="57.5011" fill="black"/>
</svg>
